<?xml version="1.0" encoding="UTF-8"?>
<svg version="1.1" xmlns="http://www.w3.org/2000/svg" width="500" height="500">
<path d="M0 0 C1.92396355 0.00280975 1.92396355 0.00280975 3.88679504 0.00567627 C6.56829972 0.01022261 9.24949448 0.02443925 11.9309082 0.046875 C15.36500679 0.0754702 18.7988668 0.08612441 22.23307323 0.0905571 C25.53041152 0.09570222 28.82769271 0.11022552 32.125 0.125 C33.35615036 0.12924988 34.58730072 0.13349976 35.85575867 0.13787842 C36.99156876 0.14748596 38.12737885 0.15709351 39.29760742 0.16699219 C40.79646736 0.17723419 40.79646736 0.17723419 42.3256073 0.18768311 C44.83203125 0.328125 44.83203125 0.328125 47.83203125 1.328125 C48.6640625 3.0703125 48.6640625 3.0703125 48.83203125 5.328125 C47.90625 7.8359375 47.90625 7.8359375 46.51953125 10.453125 C46.06964844 11.32195312 45.61976563 12.19078125 45.15625 13.0859375 C43.83203125 15.328125 43.83203125 15.328125 41.83203125 17.328125 C38.89106388 17.50351936 36.04549776 17.55944875 33.10546875 17.5234375 C32.24265289 17.5206076 31.37983704 17.51777771 30.49087524 17.51486206 C27.72945405 17.50364833 24.96835475 17.47854184 22.20703125 17.453125 C20.33724426 17.44309673 18.4674522 17.43397062 16.59765625 17.42578125 C12.00899016 17.40370512 7.42056532 17.36916734 2.83203125 17.328125 C2.65244873 18.37673706 2.65244873 18.37673706 2.46923828 19.4465332 C1.45340378 25.22636598 0.26412094 30.85819912 -1.29296875 36.515625 C-1.47472656 37.18142578 -1.65648437 37.84722656 -1.84375 38.53320312 C-2.28100886 40.13265002 -2.72384439 41.73057086 -3.16796875 43.328125 C-2.38558838 43.32288818 -1.60320801 43.31765137 -0.79711914 43.31225586 C2.72508958 43.29155394 6.24728555 43.27848662 9.76953125 43.265625 C11.00123047 43.25724609 12.23292969 43.24886719 13.50195312 43.24023438 C14.67177734 43.23701172 15.84160156 43.23378906 17.046875 43.23046875 C18.67290649 43.22261353 18.67290649 43.22261353 20.33178711 43.21459961 C22.83203125 43.328125 22.83203125 43.328125 23.83203125 44.328125 C24.28233458 49.95691662 23.29610829 53.39997093 20.83203125 58.328125 C19.83203125 59.328125 19.83203125 59.328125 17.1640625 59.4609375 C8.66588042 59.44207361 0.30221362 59.04899158 -8.16796875 58.328125 C-12.33210631 77.52496413 -12.33210631 77.52496413 -14.27099609 97.04394531 C-14.5365586 101.19942503 -14.83724513 102.90679978 -17.4921875 106.2890625 C-22.27204703 109.9315248 -26.74763767 110.66566042 -32.66796875 109.953125 C-33.82296875 109.746875 -34.97796875 109.540625 -36.16796875 109.328125 C-40.84325363 93.25441829 -36.0827731 77.04512549 -32.16796875 61.328125 C-36.78796875 61.658125 -41.40796875 61.988125 -46.16796875 62.328125 C-47.16796875 57.328125 -47.16796875 57.328125 -45.85546875 54.828125 C-41.57638123 50.84757847 -36.25419738 48.23093796 -30.64501953 46.59008789 C-27.98819305 45.53315092 -27.98819305 45.53315092 -26.89770508 42.96142578 C-26.6014624 41.99188965 -26.30521973 41.02235352 -26 40.0234375 C-25.66419922 38.96511719 -25.32839844 37.90679687 -24.98242188 36.81640625 C-24.65177734 35.70652344 -24.32113281 34.59664062 -23.98046875 33.453125 C-23.30177893 31.2675137 -22.62087637 29.08258799 -21.9375 26.8984375 C-21.49821167 25.44074951 -21.49821167 25.44074951 -21.05004883 23.95361328 C-20.26067365 21.60405871 -19.34086387 19.50649677 -18.16796875 17.328125 C-28.56237281 20.29991114 -36.37306252 23.53321877 -44.16796875 31.328125 C-46.79296875 31.453125 -46.79296875 31.453125 -49.16796875 31.328125 C-51.07856854 27.50692541 -50.70061533 23.25716937 -49.58984375 19.234375 C-47.03471491 13.19497955 -42.79709683 10.3894203 -37.16796875 7.328125 C-36.47703125 6.94785156 -35.78609375 6.56757813 -35.07421875 6.17578125 C-24.11676944 0.7583856 -12.02365549 -0.12280228 0 0 Z " fill="#36D199" transform="translate(235.16796875,149.671875)"/>
<path d="M0 0 C1.1700097 3.91736581 0.69584017 6.97959015 0 11 C-0.66 11 -1.32 11 -2 11 C-1.67 12.32 -1.34 13.64 -1 15 C-1.99 15.33 -2.98 15.66 -4 16 C-4.67156616 17.93618425 -4.67156616 17.93618425 -5 20 C-5.33 20.66 -5.66 21.32 -6 22 C-8.06640625 22.4140625 -8.06640625 22.4140625 -10.5625 22.625 C-11.38878906 22.69976562 -12.21507812 22.77453125 -13.06640625 22.8515625 C-14.02353516 22.92503906 -14.02353516 22.92503906 -15 23 C-16.51953709 27.91582077 -16.51953709 27.91582077 -17 33 C-14.03 33 -11.06 33 -8 33 C-8.656379 37.48525648 -9.70074209 41.66914029 -11 46 C-11.33 46 -11.66 46 -12 46 C-11.85831863 44.56208484 -11.71148957 43.1246763 -11.5625 41.6875 C-11.48128906 40.88699219 -11.40007812 40.08648437 -11.31640625 39.26171875 C-11 37 -11 37 -10 34 C-14.62 34.33 -19.24 34.66 -24 35 C-25 30 -25 30 -23.6875 27.5 C-19.46082059 23.5682052 -14.05688706 20.6726982 -8.390625 19.42578125 C-4.44563815 17.07297047 -3.92014837 13.1225957 -2.6875 8.875 C-2.42388672 8.02550781 -2.16027344 7.17601562 -1.88867188 6.30078125 C-1.2411851 4.2052786 -0.61261138 2.1059111 0 0 Z " fill="#41C99B" transform="translate(213,177)"/>
<path d="M0 0 C0.33 0 0.66 0 1 0 C1.66 2.64 2.32 5.28 3 8 C2.34 8 1.68 8 1 8 C1.33 8.66 1.66 9.32 2 10 C2.66 9.01 3.32 8.02 4 7 C7.125 6.8125 7.125 6.8125 10 7 C10 6.34 10 5.68 10 5 C11.32 5 12.64 5 14 5 C14.33 4.34 14.66 3.68 15 3 C19.35884089 0.62245042 23.16543441 0.83611642 28 1 C28 1.33 28 1.66 28 2 C27.16597656 2.20753906 26.33195312 2.41507813 25.47265625 2.62890625 C16.55236302 5.07100256 10.50931909 8.49068091 4 15 C1.375 15.125 1.375 15.125 -1 15 C-2.58706088 11.82587823 -2.28477127 8.46361333 -2 5 C-1 2 -1 2 0 0 Z " fill="#46C79B" transform="translate(187,166)"/>
<path d="M0 0 C4.31248609 -0.02886537 8.62494762 -0.04675255 12.9375 -0.0625 C14.16919922 -0.07087891 15.40089844 -0.07925781 16.66992188 -0.08789062 C17.83974609 -0.09111328 19.00957031 -0.09433594 20.21484375 -0.09765625 C21.84087524 -0.10551147 21.84087524 -0.10551147 23.49975586 -0.11352539 C26 0 26 0 27 1 C27.35897436 7.46153846 27.35897436 7.46153846 25 11 C24.67 8.03 24.34 5.06 24 2 C22.28103516 2.14308594 22.28103516 2.14308594 20.52734375 2.2890625 C18.99744366 2.40169318 17.4674928 2.51363576 15.9375 2.625 C14.80924805 2.72167969 14.80924805 2.72167969 13.65820312 2.8203125 C8.60470937 3.17033804 4.78976864 2.66655961 0 1 C0 0.67 0 0.34 0 0 Z " fill="#4CC49B" transform="translate(232,193)"/>
<path d="M0 0 C1.1700097 3.91736581 0.69584017 6.97959015 0 11 C-0.66 11 -1.32 11 -2 11 C-1.67 12.32 -1.34 13.64 -1 15 C-1.99 15.33 -2.98 15.66 -4 16 C-4.67156616 17.93618425 -4.67156616 17.93618425 -5 20 C-5.33 20.66 -5.66 21.32 -6 22 C-8.50390625 22.6328125 -8.50390625 22.6328125 -11.5625 23.125 C-12.57441406 23.29257813 -13.58632812 23.46015625 -14.62890625 23.6328125 C-15.41136719 23.75398438 -16.19382813 23.87515625 -17 24 C-16.67 23.34 -16.34 22.68 -16 22 C-15.31550781 21.855625 -14.63101563 21.71125 -13.92578125 21.5625 C-10.59609489 20.84579621 -8.71430118 20.1124878 -6 18 C-2.97863142 12.43967794 -1.54306158 6.09697502 0 0 Z " fill="#4BC197" transform="translate(213,177)"/>
<path d="M0 0 C0.99 0 1.98 0 3 0 C3.33 1.32 3.66 2.64 4 4 C-0.75 6.875 -0.75 6.875 -3 8 C-1.125 1.125 -1.125 1.125 0 0 Z " fill="#44C89A" transform="translate(217,168)"/>
<path d="M0 0 C0.33 0 0.66 0 1 0 C1.10841951 1.91541138 1.18578079 3.83259773 1.25 5.75 C1.29640625 6.81734375 1.3428125 7.8846875 1.390625 8.984375 C0.91735478 12.63802112 -0.19155042 13.72228105 -3 16 C-2.67 14.35 -2.34 12.7 -2 11 C-1.34 11 -0.68 11 0 11 C0 7.37 0 3.74 0 0 Z " fill="#4BC397" transform="translate(219,241)"/>
<path d="M0 0 C0.33 0 0.66 0 1 0 C1.226875 0.9075 1.45375 1.815 1.6875 2.75 C3.18127977 6.44888324 4.75400577 7.77905658 8 10 C5.6568787 9.74438677 3.32156597 9.40729228 1 9 C-0.4783226 6.04335481 -0.06032783 3.25770263 0 0 Z " fill="#4CC299" transform="translate(198,250)"/>
</svg>
